<?xml version="1.0" encoding="UTF-8" standalone="no"?>
<!-- Created with Inkscape (http://www.inkscape.org/) -->

<svg
   width="240mm"
   height="66mm"
   viewBox="0 0 240 66"
   version="1.1"
   id="svg8"
   inkscape:version="1.4.2 (ebf0e940, 2025-05-08)"
   sodipodi:docname="donutcup.svg"
   xmlns:inkscape="http://www.inkscape.org/namespaces/inkscape"
   xmlns:sodipodi="http://sodipodi.sourceforge.net/DTD/sodipodi-0.dtd"
   xmlns="http://www.w3.org/2000/svg"
   xmlns:svg="http://www.w3.org/2000/svg"
   xmlns:rdf="http://www.w3.org/1999/02/22-rdf-syntax-ns#"
   xmlns:cc="http://creativecommons.org/ns#"
   xmlns:dc="http://purl.org/dc/elements/1.1/">
  <defs
     id="defs2" />
  <sodipodi:namedview
     id="base"
     pagecolor="#ffffff"
     bordercolor="#666666"
     borderopacity="1.0"
     inkscape:pageopacity="0.0"
     inkscape:pageshadow="2"
     inkscape:zoom="0.67496601"
     inkscape:cx="376.31525"
     inkscape:cy="262.97621"
     inkscape:document-units="mm"
     inkscape:current-layer="layer1"
     showgrid="false"
     showborder="true"
     width="200mm"
     showguides="true"
     inkscape:guide-bbox="true"
     inkscape:window-width="1352"
     inkscape:window-height="844"
     inkscape:window-x="0"
     inkscape:window-y="34"
     inkscape:window-maximized="0"
     inkscape:showpageshadow="2"
     inkscape:pagecheckerboard="0"
     inkscape:deskcolor="#d1d1d1">
    <inkscape:grid
       type="xygrid"
       id="grid815"
       units="mm"
       spacingx="10"
       spacingy="10"
       empspacing="4"
       dotted="false"
       originx="0"
       originy="0" />
  </sodipodi:namedview>
  <metadata
     id="metadata5">
    <rdf:RDF>
      <cc:Work
         rdf:about="">
        <dc:format>image/svg+xml</dc:format>
        <dc:type
           rdf:resource="http://purl.org/dc/dcmitype/StillImage" />
      </cc:Work>
    </rdf:RDF>
  </metadata>
  <g
     inkscape:label="Layer 1"
     inkscape:groupmode="layer"
     id="layer1"
     transform="translate(0,-177)">
    <path
       style="fill:none;stroke:#000000;stroke-width:0.33337"
       d="m 39.770006,210.69678 c 0,0 3.031985,28.82577 32.268987,23.50409 C 101.276,228.87919 120.35985,219.38576 106.25712,204.70989 93.046318,190.96221 100.7492,187.45432 74.204698,186.08402 48.43282,184.75359 39.770006,210.69678 39.770006,210.69678 Z"
       id="path1"
       sodipodi:nodetypes="csssc" />
    <path
       style="fill:none;stroke:#000000;stroke-width:0.33337"
       d="m 62.584052,207.17883 c 0,0 4.331408,17.73894 14.077076,12.19552 9.745666,-5.54341 3.681696,-9.97815 3.681696,-9.97815"
       id="path2"
       sodipodi:nodetypes="csc" />
    <path
       style="fill:none;stroke:#000000;stroke-width:0.33337"
       d="m 63.233762,209.61794 c 0,0 4.114839,-11.53031 10.611949,-6.43036 6.497113,5.09994 8.013107,10.64336 8.013107,10.64336"
       id="path3" />
    <path
       style="fill:none;stroke:#000000;stroke-width:0.351169"
       d="m 143.58915,195.15776 c 0,0 -4.53999,11.97186 2.49698,26.05639 7.03697,14.08455 12.25795,14.31929 12.25795,14.31929 0,0 17.47892,3.75587 25.42389,-0.93897 7.94496,-4.69485 7.71797,-19.48362 7.71797,-19.48362 0,0 7.49096,4.46011 12.25793,-4.22536 4.76698,-8.68547 -12.48494,-12.91083 -12.48494,-12.91083 0,0 -3.40498,-7.04226 -24.51588,-9.38969 -21.11091,-2.34743 -23.1539,6.57279 -23.1539,6.57279 z"
       id="path4"
       sodipodi:nodetypes="cscscscsc" />
    <path
       style="fill:none;stroke:#000000;stroke-width:0.375279"
       d="m 194.90624,202.64811 c 0,0 -4.29595,0.12768 -2.87822,7.61153 1.20186,6.3443 18.09632,0.18371 2.87822,-7.61153 z"
       id="path5"
       sodipodi:nodetypes="csc" />
    <path
       style="fill:none;stroke:#000000;stroke-width:0.433001"
       d="m 155.37342,194.25239 c 0,0 -3.9753,-1.05916 -3.11879,3.65247 1.04023,5.72232 7.43179,13.89517 19.91345,8.25829 10.85006,-4.90003 15.58189,-7.55588 8.74714,-10.26589 -5.1603,-2.04608 -0.0665,-3.15836 -13.00578,-2.95046 -3.19532,0.0513 -6.89381,0.27727 -12.53602,1.30559 z"
       id="path6"
       sodipodi:nodetypes="cssssc" />
  </g>
</svg>
