<svg version="1.1" xmlns="http://www.w3.org/2000/svg" xmlns:xlink="http://www.w3.org/1999/xlink" width="706" height="600"><defs><clipPath id="mGWAlrxbiBgz"><path fill="none" stroke="none" d=" M 0 0 L 706 0 L 706 600 L 0 600 L 0 0 Z"/></clipPath></defs><g transform="scale(1,1)" clip-path="url(#mGWAlrxbiBgz)"><g><rect fill="rgb(255,255,255)" stroke="none" x="0" y="0" width="706" height="600" fill-opacity="1"/><path fill="none" stroke="rgb(0,0,0)" paint-order="fill stroke markers" d=" M 285.43250662511997 607 L 271.4872864993102 607 L 272 599.3171351490469 L 272 599.317135149047 L 273 584.8307331926835 L 273 584.8307331926836 L 274 570.8342161683244 L 274 570.8342161683245 L 275 557.3191575900701 L 275 557.3191575900702 L 276 544.2771309720217 L 276 544.2771309720218 L 277 531.6997098282797 L 277 531.6997098282798 L 278 519.578467672945 L 278 519.578467672945 L 279 507.9049780201184 L 279 507.9049780201184 L 280 496.6708143839005 L 280 496.6708143839005 L 281 485.8675502783923 L 281 485.8675502783923 L 282 475.48675921769444 L 282 475.4867592176945 L 283 465.5200147159078 L 283 465.5200147159079 L 284 455.9588902871333 L 284 455.95889028713333 L 285 446.7949594454714 L 285 446.7949594454715 L 286 438.01979570502306 L 286 438.0197957050231 L 287 429.6249725798892 L 287 429.62497257988923 L 288 421.6020635841703 L 288 421.6020635841703 L 289 413.94264223196734 L 289 413.94264223196734 L 290 406.63828203738103 L 290 406.63828203738103 L 291 399.6805565145122 L 291 399.6805565145122 L 292 393.0610391774617 L 292 393.06103917746174 L 293 386.77130354033017 L 293 386.77130354033017 L 294 380.8029231172184 L 294 380.8029231172185 L 295 375.1474714222274 L 295 375.1474714222274 L 296 369.7965219694577 L 296 369.7965219694577 L 297 364.74164827301007 L 297 364.7416482730101 L 298 359.9744238469855 L 298 359.97442384698553 L 299 355.48642220548464 L 299 355.48642220548464 L 300 351.26921686260835 L 300 351.26921686260835 L 301 347.3143813324573 L 301 347.31438133245734 L 302 343.61348912913235 L 302 343.6134891291324 L 303 340.15811376673435 L 303 340.15811376673435 L 304 336.93982875936393 L 304 336.93982875936393 L 305 333.950207621122 L 305 333.950207621122 L 306 331.1808238661092 L 306 331.1808238661092 L 307 328.6232510084265 L 307 328.6232510084265 L 308 326.2690625621746 L 308 326.2690625621746 L 309 324.10983204145424 L 309 324.10983204145424 L 310 322.1371329603663 L 310 322.1371329603663 L 311 320.3425388330114 L 311 320.3425388330114 L 312 318.7176231734905 L 312 318.7176231734905 L 313 317.2539594959043 L 313 317.2539594959043 L 314 315.9431213143536 L 314 315.9431213143536 L 315 314.7766821429392 L 315 314.7766821429392 L 316 313.7462154957619 L 316 313.7462154957619 L 317 312.84329488692237 L 317 312.84329488692237 L 318 312.0594938305215 L 318 312.0594938305215 L 319 311.38638584066 L 319 311.38638584066 L 320 310.81554443143875 L 320 310.81554443143875 L 321 310.33854311695853 L 321 310.33854311695853 L 322 309.94695541132 L 322 309.94695541132 L 323 309.63235482862405 L 323 309.63235482862405 L 324 309.3863148829715 L 324 309.3863148829715 L 325 309.200409088463 L 325 309.200409088463 L 326 309.0662109591994 L 326 309.0662109591994 L 327 308.9752940092815 L 327 308.9752940092815 L 328 308.9192317528101 L 328 308.9192317528101 L 329 308.8895977038859 L 329 308.8895977038859 L 330 308.8779653766098 L 330 308.8779653766098 L 331 308.8759082850825 L 331 308.8759082850825 L 332 308.8749999434048 L 332 308.8749999434048 L 333 308.8668138656775 L 333 308.8668138656775 L 334 308.8429235660014 L 334 308.8429235660014 L 335 308.79490255847725 L 335 308.79490255847725 L 336 308.71432435720584 L 336 308.71432435720584 L 337 308.59276247628793 L 337 308.59276247628793 L 338 308.4217904298244 L 338 308.4217904298244 L 339 308.1929817319159 L 339 308.1929817319159 L 340 307.8979098966633 L 340 307.8979098966633 L 341 307.52814843816736 L 341 307.52814843816736 L 342 307.07527087052887 L 342 307.07527087052887 L 343 306.53085070784863 L 343 306.53085070784863 L 344 305.8864614642274 L 344 305.8864614642274 L 345 305.1336766537659 L 345 305.1336766537659 L 346 304.2640697905651 L 346 304.2640697905651 L 347 303.2692143887256 L 347 303.2692143887256 L 348 302.14068396234825 L 348 302.14068396234825 L 349 300.8700520255339 L 349 300.8700520255339 L 350 299.4488920923832 L 350 299.4488920923832 L 351 297.868777676997 L 351 297.868777676997 L 352 296.1212822934761 L 352 296.1212822934761 L 353 294.1979794559213 L 353 294.1979794559213 L 354 292.0904426784333 L 354 292.09044267843336 L 355 289.790245475113 L 355 289.790245475113 L 356 287.2889613600611 L 356 287.2889613600611 L 357 284.5781638473784 L 357 284.5781638473784 L 358 281.6494264511657 L 358 281.6494264511657 L 359 278.4943226855238 L 359 278.4943226855238 L 360 275.1044260645534 L 360 275.1044260645534 L 361 271.47131010235535 L 361 271.4713101023554 L 362 267.58654831303045 L 362 267.58654831303045 L 363 263.4417142106795 L 363 263.4417142106795 L 364 259.0283813094032 L 364 259.0283813094032 L 365 254.33812312330235 L 365 254.33812312330238 L 366 249.36251316647778 L 366 249.3625131664778 L 367 244.0931249530303 L 367 244.09312495303033 L 368 238.52153199706066 L 368 238.52153199706066 L 369 232.63930781266956 L 369 232.63930781266959 L 370 226.43802591395786 L 370 226.43802591395792 L 371 219.90925981502642 L 371 219.90925981502642 L 372 213.0445830299759 L 372 213.04458302997594 L 373 205.83556907290713 L 373 205.83556907290716 L 374 198.27379145792085 L 374 198.27379145792088 L 375 190.35082369911797 L 375 190.350823699118 L 376 182.05823931059916 L 376 182.05823931059922 L 377 173.38761180646523 L 377 173.38761180646526 L 378 164.33051470081693 L 378 164.330514700817 L 379 154.87852150775515 L 379 154.8785215077552 L 380 145.02320574138062 L 380 145.02320574138068 L 381 134.75614091579405 L 381 134.7561409157941 L 382 124.06890054509628 L 382 124.06890054509631 L 383 112.95305814338815 L 383 112.9530581433882 L 384 101.4001872247704 L 384 101.40018722477046 L 385 89.40186130334374 L 385 89.40186130334382 L 386 76.94965389320902 L 386 76.94965389320913 L 387 64.03513850846701 L 387 64.0351385084671 L 388 50.64988866321869 L 388 50.6498886632188 L 389 36.785477871564524 L 389 36.78547787156464 L 390 22.433479647605395 L 390 22.43347964760551 L 391 7.5854675054422955 L 391 7.585467505442409 L 391.9500415299436 -6.999999999999999" stroke-opacity="1" stroke-linecap="round" stroke-linejoin="round" stroke-miterlimit="10"/></g></g></svg>